<svg xmlns="http://www.w3.org/2000/svg" xmlns:xlink="http://www.w3.org/1999/xlink" width="100" zoomAndPan="magnify" viewBox="0 0 75 52.499999" height="70" preserveAspectRatio="xMidYMid meet" version="1.0"><defs><clipPath id="dbee403e38"><path d="M 5 3 L 71.589844 3 L 71.589844 49.820312 L 5 49.820312 Z M 5 3 " clip-rule="nonzero"/></clipPath><clipPath id="d2a4f5d324"><path d="M 11 2.273438 L 13 2.273438 L 13 4 L 11 4 Z M 11 2.273438 " clip-rule="nonzero"/></clipPath></defs><g clip-path="url(#dbee403e38)"><path fill="#000000" d="M 70.328125 11.070312 C 69.167969 7.753906 66.335938 5.621094 63.132812 4.457031 C 59.886719 3.28125 56.308594 3.09375 52.882812 3.101562 C 48.578125 3.105469 44.269531 3.101562 39.960938 3.171875 C 35.652344 3.238281 31.347656 3.386719 27.046875 3.710938 C 25.238281 3.851562 23.449219 4.015625 21.644531 4.082031 C 19.914062 4.144531 18.175781 4.222656 16.476562 4.5625 C 13.222656 5.210938 10.652344 7.21875 8.984375 10.074219 C 7.386719 12.804688 6.707031 15.953125 6.332031 19.0625 C 5.972656 22.027344 5.933594 25.042969 5.902344 28.027344 C 5.867188 31.476562 5.988281 34.96875 6.699219 38.355469 C 7.292969 41.199219 8.371094 44.371094 10.695312 46.265625 C 12.800781 47.976562 15.457031 48.757812 18.101562 49.136719 C 20.867188 49.53125 23.652344 49.582031 26.441406 49.574219 C 29.644531 49.570312 32.847656 49.714844 36.050781 49.765625 C 40.28125 49.835938 44.515625 49.792969 48.742188 49.574219 C 50.847656 49.472656 52.949219 49.316406 55.050781 49.117188 C 56.867188 48.941406 58.746094 48.824219 60.523438 48.394531 C 62.828125 47.835938 64.976562 46.585938 66.53125 44.777344 C 68.085938 42.964844 69.09375 40.769531 69.730469 38.480469 C 71.050781 33.757812 71.023438 28.734375 70.988281 23.871094 C 70.984375 22.816406 70.972656 21.769531 70.984375 20.71875 C 71.015625 17.527344 71.394531 14.15625 70.320312 11.078125 Z M 67.722656 34.074219 C 67.710938 34.148438 67.6875 34.296875 67.683594 34.335938 C 67.664062 34.464844 67.644531 34.597656 67.621094 34.726562 C 67.574219 35.03125 67.519531 35.332031 67.464844 35.632812 C 67.359375 36.183594 67.238281 36.726562 67.097656 37.273438 C 66.957031 37.804688 66.804688 38.324219 66.625 38.84375 C 66.539062 39.09375 66.445312 39.34375 66.347656 39.597656 C 66.332031 39.652344 66.292969 39.742188 66.273438 39.785156 C 66.21875 39.910156 66.164062 40.027344 66.109375 40.152344 C 65.890625 40.621094 65.652344 41.074219 65.382812 41.519531 C 65.25 41.734375 65.109375 41.953125 64.96875 42.15625 C 64.90625 42.246094 64.839844 42.339844 64.773438 42.429688 C 64.738281 42.472656 64.703125 42.519531 64.667969 42.5625 C 64.335938 42.964844 63.976562 43.34375 63.585938 43.691406 C 63.5 43.769531 63.410156 43.84375 63.324219 43.921875 C 63.292969 43.949219 63.257812 43.980469 63.226562 44.007812 C 63.011719 44.167969 62.796875 44.320312 62.566406 44.460938 C 62.347656 44.601562 62.121094 44.730469 61.886719 44.855469 C 61.777344 44.914062 61.667969 44.964844 61.558594 45.015625 C 61.5 45.046875 61.445312 45.070312 61.390625 45.09375 C 61.375 45.097656 61.320312 45.128906 61.277344 45.148438 C 61.210938 45.171875 61.011719 45.246094 60.976562 45.261719 C 60.851562 45.304688 60.734375 45.347656 60.609375 45.386719 C 60.316406 45.480469 60.015625 45.566406 59.710938 45.640625 C 58.894531 45.832031 58.550781 45.859375 57.796875 45.949219 C 56.808594 46.070312 55.824219 46.171875 54.835938 46.265625 C 50.820312 46.644531 46.789062 46.835938 42.753906 46.902344 C 38.691406 46.964844 34.621094 46.902344 30.566406 46.753906 C 28.164062 46.667969 25.757812 46.738281 23.359375 46.683594 C 20.671875 46.613281 18.40625 46.484375 15.890625 45.738281 C 15.601562 45.652344 15.3125 45.5625 15.027344 45.457031 C 14.898438 45.410156 14.769531 45.363281 14.640625 45.3125 C 14.640625 45.3125 14.597656 45.296875 14.566406 45.285156 C 14.519531 45.265625 14.4375 45.226562 14.421875 45.222656 C 13.890625 44.972656 13.371094 44.691406 12.882812 44.359375 C 12.84375 44.328125 12.738281 44.246094 12.703125 44.226562 C 12.628906 44.167969 12.546875 44.105469 12.46875 44.035156 C 12.25 43.839844 12.035156 43.636719 11.839844 43.414062 C 11.773438 43.34375 11.714844 43.265625 11.652344 43.191406 C 11.640625 43.175781 11.511719 43.003906 11.484375 42.957031 C 11.304688 42.683594 11.136719 42.394531 10.984375 42.105469 C 9.589844 39.484375 9.089844 36.28125 8.882812 33.292969 C 8.667969 30.199219 8.753906 27.085938 8.84375 23.984375 C 8.929688 21.121094 9.113281 18.503906 9.792969 15.773438 C 10.460938 13.113281 11.527344 10.6875 13.617188 8.914062 C 14.613281 8.066406 15.984375 7.566406 17.40625 7.304688 C 18.839844 7.039062 20.394531 7.003906 21.90625 6.949219 C 25.730469 6.8125 29.546875 6.386719 33.371094 6.234375 C 37.484375 6.066406 41.601562 6.019531 45.714844 6.003906 C 49.484375 5.988281 53.292969 5.8125 57.050781 6.136719 C 59.929688 6.386719 63.039062 7.046875 65.316406 8.84375 C 66.378906 9.6875 67.210938 10.769531 67.617188 12.003906 C 68.085938 13.441406 68.183594 14.773438 68.207031 16.285156 C 68.226562 17.761719 68.140625 19.238281 68.125 20.714844 C 68.085938 25.171875 68.300781 29.648438 67.714844 34.078125 Z M 67.722656 34.074219 " fill-opacity="1" fill-rule="nonzero"/></g><path fill="#000000" d="M 51.949219 22.535156 C 48.683594 21.453125 45.410156 20.378906 42.140625 19.316406 C 40.5 18.785156 38.851562 18.292969 37.210938 17.796875 C 36.421875 17.554688 35.636719 17.320312 34.84375 17.117188 C 33.988281 16.890625 33.132812 16.628906 32.242188 16.652344 C 31.636719 16.667969 31.484375 17.320312 31.824219 17.710938 C 31.644531 18.941406 31.804688 20.234375 31.835938 21.472656 C 31.871094 22.839844 31.945312 24.210938 31.964844 25.582031 C 31.984375 26.917969 31.96875 28.25 31.933594 29.582031 C 31.894531 30.820312 31.707031 32.136719 31.8125 33.378906 C 31.113281 34.242188 32.15625 35.738281 33.328125 35.109375 C 39.664062 31.710938 45.957031 28.222656 52.238281 24.714844 C 53.171875 24.195312 52.890625 22.847656 51.949219 22.535156 Z M 34.554688 31.742188 C 34.542969 31.011719 34.480469 30.273438 34.457031 29.585938 C 34.402344 28.214844 34.316406 26.839844 34.203125 25.46875 C 34.09375 24.128906 33.96875 22.78125 33.765625 21.449219 C 33.617188 20.496094 33.5 19.488281 33.238281 18.535156 C 33.5625 18.671875 33.894531 18.792969 34.21875 18.925781 C 35.023438 19.238281 35.832031 19.527344 36.648438 19.8125 C 38.269531 20.382812 39.894531 20.964844 41.53125 21.515625 C 43.914062 22.320312 46.296875 23.132812 48.679688 23.945312 C 43.957031 26.519531 39.242188 29.117188 34.550781 31.75 Z M 34.554688 31.742188 " fill-opacity="1" fill-rule="nonzero"/><path fill="#000000" d="M 8.886719 3.902344 C 6.605469 5.367188 4.816406 7.46875 3.664062 9.925781 C 3.082031 11.171875 2.621094 12.472656 2.371094 13.824219 C 2.121094 15.203125 1.914062 16.632812 2.46875 17.949219 C 2.71875 18.550781 3.601562 18.671875 3.8125 17.949219 C 4.152344 16.777344 4.121094 15.570312 4.335938 14.367188 C 4.550781 13.140625 4.878906 11.921875 5.351562 10.773438 C 6.285156 8.496094 7.746094 6.414062 9.507812 4.710938 C 9.921875 4.3125 9.382812 3.589844 8.886719 3.902344 Z M 8.886719 3.902344 " fill-opacity="1" fill-rule="nonzero"/><g clip-path="url(#d2a4f5d324)"><path fill="#000000" d="M 12.246094 2.273438 C 11.433594 2.273438 11.433594 3.546875 12.246094 3.546875 C 13.0625 3.546875 13.0625 2.273438 12.246094 2.273438 Z M 12.246094 2.273438 " fill-opacity="1" fill-rule="nonzero"/></g></svg>